# xmcd CD database file
#
# Track frame offsets:
#	187
#	23292
#	37565
#	56170
#	77842
#	97852
#	118670
#	139517
#	157767
#	175487
#	185940
#	208277
#	232715
#	251972
#
# Disc length: 3932 seconds
#
# Revision: 2
# Processed by: cddbd v1.5.2PL0 Copyright (c) Steve Scherf et al.
# Submitted via: CDex 1.51
#
DISCID=ae0f5a0e
DTITLE=John Mayall - Drivin' On - The ABC Years 1975 To 1982 (Disc-2)
DYEAR=1998
DGENRE=Blues
TTITLE0=Disconnected Line
TTITLE1=Arizona Bound
TTITLE2=Do I Please You
TTITLE3=The Last Time
TTITLE4=Now And Then
TTITLE5=Goodnight Dreams
TTITLE6=Tuscon Lady (Live)
TTITLE7=Parchman Farm (Live)
TTITLE8=Lonely Birthday (Live)
TTITLE9=Another Man (Live)
TTITLE10=Hard Times Again (Live)
TTITLE11=My Time After Awhile (Live)
TTITLE12=Howling Moon (Live)
TTITLE13=Looking Out For Willie (Live)
EXTD=YEAR: 1998
EXTT0=
EXTT1=
EXTT2=
EXTT3=
EXTT4=
EXTT5=
EXTT6=
EXTT7=
EXTT8=
EXTT9=
EXTT10=
EXTT11=
EXTT12=
EXTT13=
PLAYORDER=
